<?xml version="1.0" encoding="UTF-8"?>
<svg id="Layer_1" xmlns="http://www.w3.org/2000/svg" version="1.1" xmlns:xlink="http://www.w3.org/1999/xlink" viewBox="0 0 841.89 595.28">
  <!-- Generator: Adobe Illustrator 29.5.0, SVG Export Plug-In . SVG Version: 2.1.0 Build 137)  -->
  <defs>
    <style>
      .st0, .st1, .st2 {
        fill: #39637c;
      }

      .st0, .st3 {
        opacity: .25;
      }

      .st0, .st3, .st4, .st5, .st6, .st7, .st8, .st2, .st9 {
        fill-rule: evenodd;
      }

      .st10 {
        fill: url(#linear-gradient2);
      }

      .st1 {
        font-family: Almarai-ExtraBold, 'Almarai ExtraBold';
        font-size: 86.14px;
        font-weight: 700;
      }

      .st11 {
        fill: #91c386;
      }

      .st3, .st6 {
        fill: #e8e086;
      }

      .st12 {
        fill: url(#linear-gradient1);
      }

      .st4 {
        opacity: .54;
      }

      .st4, .st7, .st8, .st13 {
        fill: #3ca16f;
      }

      .st5 {
        opacity: .35;
      }

      .st5, .st9 {
        fill: #94d6d9;
      }

      .st14 {
        clip-path: url(#clippath-1);
      }

      .st15 {
        clip-path: url(#clippath-3);
      }

      .st16 {
        clip-rule: evenodd;
        fill: none;
      }

      .st6 {
        opacity: .29;
      }

      .st17 {
        fill: url(#linear-gradient3);
      }

      .st7 {
        opacity: .6;
      }

      .st18 {
        clip-path: url(#clippath-2);
      }

      .st8 {
        opacity: .52;
      }

      .st2 {
        opacity: .15;
      }

      .st9 {
        opacity: .08;
      }

      .st19 {
        fill: url(#linear-gradient);
      }

      .st13 {
        font-family: Almarai-Regular, 'Almarai Regular';
        font-size: 51.85px;
      }

      .st20 {
        clip-path: url(#clippath);
      }
    </style>
    <clipPath id="clippath">
      <path class="st16" d="M247.37,240.63l6.65-11.39,11.64-12.25s-48.86,27.82-64.05,93.9c0,0,1.93,19.34,4.94,19.37,3,.02,9.38-11.86,9.38-11.86l31.45-77.77Z"/>
    </clipPath>
    <linearGradient id="linear-gradient" x1="155.44" y1="411.9" x2="280" y2="191.64" gradientUnits="userSpaceOnUse">
      <stop offset="0" stop-color="#cfdee2"/>
      <stop offset="1" stop-color="#fff"/>
    </linearGradient>
    <clipPath id="clippath-1">
      <path class="st16" d="M160.94,265.5l.31,23.25c20.64,85.14,34.95,131.26,132.9,133.72-17.09-8.41-42.32-30.12-62.97-42.45,0,0-29.5-36.16-70.23-114.53"/>
    </clipPath>
    <linearGradient id="linear-gradient1" x1="140.98" y1="259.16" x2="292.68" y2="407.81" gradientUnits="userSpaceOnUse">
      <stop offset="0" stop-color="#dae5e1"/>
      <stop offset="1" stop-color="#fff"/>
    </linearGradient>
    <clipPath id="clippath-2">
      <path class="st16" d="M265.66,216.99c-38.8,98.01-22.77,143.86,5.32,190.64-91.1-9.89-70.58-145.95-5.32-190.64"/>
    </clipPath>
    <linearGradient id="linear-gradient2" x1="239.23" y1="232.62" x2="210.75" y2="397.05" gradientUnits="userSpaceOnUse">
      <stop offset="0" stop-color="#25a1b0"/>
      <stop offset="1" stop-color="#8ad3d9"/>
    </linearGradient>
    <clipPath id="clippath-3">
      <path class="st16" d="M270.97,407.63s-68.59,21.77-109.37-118.86c10.88,61.44-6.92,125.95,104.05,142.79-202.05,31.26-83.12-197.23-180.76-237.35,146.88,37.85,113.96,189.34,186.08,213.42"/>
    </clipPath>
    <linearGradient id="linear-gradient3" x1="177.13" y1="373.31" x2="146.66" y2="234.54" gradientUnits="userSpaceOnUse">
      <stop offset="0" stop-color="#50bb8c"/>
      <stop offset="1" stop-color="#a7c583"/>
    </linearGradient>
  </defs>
  <g>
    <g class="st20">
      <rect class="st19" x="201.61" y="216.99" width="64.05" height="113.29"/>
    </g>
    <g class="st14">
      <rect class="st12" x="160.94" y="265.5" width="133.21" height="156.98"/>
    </g>
    <g class="st18">
      <rect class="st10" x="179.88" y="216.99" width="91.1" height="190.64"/>
    </g>
    <path class="st5" d="M242.67,313.54c-.93,38.56,11.54,66.16,28.31,94.09-17.18-1.86-30.38-8.22-40.07-17.59.25-5.85.76-12.48,1.55-19.97,3.56-33.72,10.2-56.52,10.2-56.52h0Z"/>
    <path class="st9" d="M250.67,365.98c5.07,14.66,12.18,28.11,20.31,41.64-48.69-5.28-65.48-46.61-60.62-90.77.54.83,19.17,29.68,40.31,49.12"/>
    <path class="st2" d="M265.66,216.99c-17.01,42.96-23.48,75.89-23.02,103.28h0s-9.54-37.61-7.87-70.92c8.53-12.95,18.96-24.19,30.89-32.36"/>
    <path class="st0" d="M265.66,216.99c-8.42,21.28-14.26,40.09-17.95,56.99-20.48,18.11-36.69,41.85-37.34,42.82,4.26-38.44,24.92-79.02,55.29-99.81"/>
    <path class="st8" d="M270.97,407.63c-52.76-5.73-68.08-53.78-58.95-101.89,14.28,47.37,27.8,83.7,58.95,101.89"/>
    <g class="st15">
      <rect class="st17" x="63.61" y="194.2" width="207.36" height="268.61"/>
    </g>
    <path class="st4" d="M185.61,393.58c13.51,17.82,37.15,31.46,80.05,37.97-35.99,5.57-61.76,2.86-80.42-5.52-.68-11.74-.47-22.56.37-32.45M270.97,407.63s-41.82,13.27-79.56-47.86c7.56-28.33,18.93-42.94,18.93-42.94,16.48,41.59,27.42,79.7,60.63,90.79Z"/>
    <path class="st7" d="M168.45,347.36c5.92,39.44,21.95,72.78,97.2,84.19-111.89,17.31-125.34-45.04-131.66-110.94,0,0,12.64,13.64,34.45,26.74M270.97,407.63s-42.27,13.4-80.17-48.86c12.32,5.22,26.31,9.43,41.65,11.3,9.29,17.87,20.69,31.61,38.52,37.56Z"/>
    <path class="st3" d="M134,320.61c-5.09-53.1-5.54-108.51-49.11-126.41,29.37,7.57,51.54,19.69,68.81,34.42,5.42,37.64-19.57,91.71-19.7,91.99"/>
    <path class="st6" d="M123.78,243.92c-6.21-22.59-17.2-40.81-38.89-49.72,79.24,20.42,106.15,73.91,125.45,122.63-.32-.46-38.12-55.04-86.56-72.91"/>
  </g>
  <text class="st1" transform="translate(397.92 327.41)"><tspan x="0" y="0">نبــــــــــراس</tspan></text>
  <text class="st13" transform="translate(473.57 380.42)"><tspan x="0" y="0">Nebras</tspan></text>
  <path class="st11" d="M306.67,412.69c-.58,0-1.06-.47-1.06-1.06v-167.86c0-.58.47-1.06,1.06-1.06s1.06.47,1.06,1.06v167.86c0,.58-.47,1.06-1.06,1.06Z"/>
</svg>